<?xml version="1.0" encoding="UTF-8"?>
<!DOCTYPE svg PUBLIC "-//W3C//DTD SVG 1.1//EN" "http://www.w3.org/Graphics/SVG/1.1/DTD/svg11.dtd">
<svg xmlns="http://www.w3.org/2000/svg" version="1.1" width="434px" height="434px" style="shape-rendering:geometricPrecision; text-rendering:geometricPrecision; image-rendering:optimizeQuality; fill-rule:evenodd; clip-rule:evenodd" xmlns:xlink="http://www.w3.org/1999/xlink">
<g><path style="opacity:1" fill="#f9970b" d="M 215.5,5.5 C 215.5,74.8333 215.5,144.167 215.5,213.5C 146.167,213.5 76.8333,213.5 7.5,213.5C 7.5,214.833 7.5,216.167 7.5,217.5C 76.8333,217.5 146.167,217.5 215.5,217.5C 215.5,286.833 215.5,356.167 215.5,425.5C 169.832,425.667 124.165,425.5 78.5,425C 39.3333,416.5 15.5,392.667 7,353.5C 6.5,261.834 6.33334,170.167 6.5,78.5C 7.38292,69.1909 10.0496,60.5242 14.5,52.5C 15.9063,52.0269 16.573,51.0269 16.5,49.5C 28.6152,26.9178 47.2819,12.7511 72.5,7C 120.133,5.52937 167.8,5.02937 215.5,5.5 Z"/></g>
<g><path style="opacity:1" fill="#c47808" d="M 215.5,5.5 C 216.833,5.5 218.167,5.5 219.5,5.5C 219.5,74.8333 219.5,144.167 219.5,213.5C 288.167,213.5 356.833,213.5 425.5,213.5C 425.5,214.833 425.5,216.167 425.5,217.5C 356.833,217.5 288.167,217.5 219.5,217.5C 219.5,241.833 219.5,266.167 219.5,290.5C 219.5,309.833 219.5,329.167 219.5,348.5C 219.5,374.167 219.5,399.833 219.5,425.5C 218.167,425.5 216.833,425.5 215.5,425.5C 215.5,356.167 215.5,286.833 215.5,217.5C 146.167,217.5 76.8333,217.5 7.5,217.5C 7.5,216.167 7.5,214.833 7.5,213.5C 76.8333,213.5 146.167,213.5 215.5,213.5C 215.5,144.167 215.5,74.8333 215.5,5.5 Z"/></g>
<g><path style="opacity:1" fill="#f9970b" d="M 219.5,5.5 C 264.168,5.33334 308.835,5.50001 353.5,6C 393.769,14.1019 417.769,38.2686 425.5,78.5C 425.5,123.5 425.5,168.5 425.5,213.5C 356.833,213.5 288.167,213.5 219.5,213.5C 219.5,144.167 219.5,74.8333 219.5,5.5 Z"/></g>
<g><path style="opacity:0.227" fill="#5c3912" d="M 16.5,49.5 C 16.573,51.0269 15.9063,52.0269 14.5,52.5C 14.427,50.9731 15.0937,49.9731 16.5,49.5 Z"/></g>
<g><path style="opacity:1" fill="#fefffe" d="M 102.5,76.5 C 107.5,76.5 112.5,76.5 117.5,76.5C 117.5,86.5 117.5,96.5 117.5,106.5C 127.5,106.5 137.5,106.5 147.5,106.5C 147.5,111.5 147.5,116.5 147.5,121.5C 137.5,121.5 127.5,121.5 117.5,121.5C 117.5,131.5 117.5,141.5 117.5,151.5C 112.5,151.5 107.5,151.5 102.5,151.5C 102.5,141.5 102.5,131.5 102.5,121.5C 92.5,121.5 82.5,121.5 72.5,121.5C 72.5,116.5 72.5,111.5 72.5,106.5C 82.5,106.5 92.5,106.5 102.5,106.5C 102.5,96.5 102.5,86.5 102.5,76.5 Z"/></g>
<g><path style="opacity:0.07" fill="#010101" d="M 6.5,78.5 C 6.33334,170.167 6.5,261.834 7,353.5C 15.5,392.667 39.3333,416.5 78.5,425C 124.165,425.5 169.832,425.667 215.5,425.5C 216.833,425.5 218.167,425.5 219.5,425.5C 263.835,425.667 308.168,425.5 352.5,425C 388.527,418.307 412.027,397.474 423,362.5C 424.988,355.639 425.822,348.639 425.5,341.5C 425.5,324.5 425.5,307.5 425.5,290.5C 425.5,266.167 425.5,241.833 425.5,217.5C 425.5,216.167 425.5,214.833 425.5,213.5C 425.5,168.5 425.5,123.5 425.5,78.5C 426.177,124.02 426.843,169.687 427.5,215.5C 426.676,261.811 426.176,308.144 426,354.5C 418.692,392.141 396.526,415.975 359.5,426C 311.698,427.152 263.864,427.652 216,427.5C 168.136,427.652 120.302,427.152 72.5,426C 35.4744,415.975 13.3078,392.141 6,354.5C 5.16757,262.332 5.33424,170.332 6.5,78.5 Z"/></g>
<g><path style="opacity:1" fill="#f5c47d" d="M 102.5,76.5 C 102.5,86.5 102.5,96.5 102.5,106.5C 92.5,106.5 82.5,106.5 72.5,106.5C 81.9856,105.506 91.6522,105.173 101.5,105.5C 101.173,95.6522 101.506,85.9856 102.5,76.5 Z"/></g>
<g><path style="opacity:1" fill="#f5c47d" d="M 117.5,76.5 C 118.494,85.9856 118.827,95.6522 118.5,105.5C 128.348,105.173 138.014,105.506 147.5,106.5C 137.5,106.5 127.5,106.5 117.5,106.5C 117.5,96.5 117.5,86.5 117.5,76.5 Z"/></g>
<g><path style="opacity:1" fill="#fefaf7" d="M 284.5,106.5 C 309.5,106.5 334.5,106.5 359.5,106.5C 359.5,111.833 359.5,117.167 359.5,122.5C 334.5,122.5 309.5,122.5 284.5,122.5C 284.5,117.167 284.5,111.833 284.5,106.5 Z"/></g>
<g><path style="opacity:1" fill="#ebbe7d" d="M 72.5,121.5 C 82.5,121.5 92.5,121.5 102.5,121.5C 102.5,131.5 102.5,141.5 102.5,151.5C 101.506,142.014 101.173,132.348 101.5,122.5C 91.6522,122.827 81.9856,122.494 72.5,121.5 Z"/></g>
<g><path style="opacity:1" fill="#ebbe7d" d="M 147.5,121.5 C 138.014,122.494 128.348,122.827 118.5,122.5C 118.827,132.348 118.494,142.014 117.5,151.5C 117.5,141.5 117.5,131.5 117.5,121.5C 127.5,121.5 137.5,121.5 147.5,121.5 Z"/></g>
<g><path style="opacity:1" fill="#e3e3e3" d="M 425.5,217.5 C 425.5,241.833 425.5,266.167 425.5,290.5C 356.833,290.5 288.167,290.5 219.5,290.5C 219.5,266.167 219.5,241.833 219.5,217.5C 288.167,217.5 356.833,217.5 425.5,217.5 Z"/></g>
<g><path style="opacity:1" fill="#fefbf8" d="M 88.5,286.5 C 95.4795,293.145 102.48,299.812 109.5,306.5C 116.486,300.015 123.319,293.348 130,286.5C 133.833,290.333 137.667,294.167 141.5,298C 134.652,304.681 127.985,311.514 121.5,318.5C 128.03,325.195 134.363,332.028 140.5,339C 137.382,343.121 133.882,346.954 130,350.5C 123.319,343.652 116.486,336.985 109.5,330.5C 102.514,336.985 95.6811,343.652 89,350.5C 85.6667,347.167 82.3333,343.833 79,340.5C 78.3333,339.5 78.3333,338.5 79,337.5C 85.3481,331.319 91.5148,324.986 97.5,318.5C 91.0147,311.514 84.348,304.681 77.5,298C 81.3705,294.298 85.0371,290.464 88.5,286.5 Z"/></g>
<g><path style="opacity:1" fill="#dcdcdc" d="M 219.5,290.5 C 288.167,290.5 356.833,290.5 425.5,290.5C 425.5,307.5 425.5,324.5 425.5,341.5C 424.532,343.607 424.198,345.941 424.5,348.5C 356.167,348.5 287.833,348.5 219.5,348.5C 219.5,329.167 219.5,309.833 219.5,290.5 Z"/></g>
<g><path style="opacity:1" fill="#797979" d="M 285.5,293.5 C 310.5,293.5 335.5,293.5 360.5,293.5C 360.5,298.833 360.5,304.167 360.5,309.5C 335.5,309.5 310.5,309.5 285.5,309.5C 285.5,304.167 285.5,298.833 285.5,293.5 Z"/></g>
<g><path style="opacity:1" fill="#797979" d="M 285.5,327.5 C 310.5,327.5 335.5,327.5 360.5,327.5C 360.5,332.833 360.5,338.167 360.5,343.5C 335.5,343.5 310.5,343.5 285.5,343.5C 285.5,338.167 285.5,332.833 285.5,327.5 Z"/></g>
<g><path style="opacity:1" fill="#d6d6d6" d="M 425.5,341.5 C 425.822,348.639 424.988,355.639 423,362.5C 412.027,397.474 388.527,418.307 352.5,425C 308.168,425.5 263.835,425.667 219.5,425.5C 219.5,399.833 219.5,374.167 219.5,348.5C 287.833,348.5 356.167,348.5 424.5,348.5C 424.198,345.941 424.532,343.607 425.5,341.5 Z"/></g>
</svg>
